# xmcd CD database file
#
# Track frame offsets:
#	150
#	18647
#	38000
#	55807
#	69140
#	82310
#	89635
#	110220
#	133095
#	148967
#	167260
#	184842
#	204122
#	221715
#	238440
#
# Disc length: 3364 seconds
#
# Revision: 0
# Processed by: cddbd v1.5.2PL0 Copyright (c) Steve Scherf et al.
# Submitted via: CDex 1.70beta2
#
DISCID=e30d220f
DTITLE=Essential Ellington - Island Virgin
DYEAR=1900
DGENRE=Jazz
TTITLE0=Island Virgin
TTITLE1=Virgin Jungle
TTITLE2=The Single Petal Of A Rose
TTITLE3=Sonnet For Caesar
TTITLE4=Sonnet To Hank Cinq
TTITLE5=Sonnet In Search Of A Moor
TTITLE6=Sonnet For Sister Kate
TTITLE7=Caravan
TTITLE8=Take The A  Train
TTITLE9=Looking Glass
TTITLE10=Don Juan
TTITLE11=Amour, Amour
TTITLE12=U.M.M.G
TTITLE13=Dual Highway
TTITLE14=Fountainebleau Forest
EXTD=
EXTT0=
EXTT1=
EXTT2=
EXTT3=
EXTT4=
EXTT5=
EXTT6=
EXTT7=
EXTT8=
EXTT9=
EXTT10=
EXTT11=
EXTT12=
EXTT13=
EXTT14=
PLAYORDER=
